<svg aria-hidden="true" style="position: absolute; width: 0; height: 0; overflow: hidden;" version="1.1" xmlns="http://www.w3.org/2000/svg" xmlns:xlink="http://www.w3.org/1999/xlink">
<defs>
<symbol id="icon-spinner2" viewBox="0 0 32 32">
<path d="M32 16c-0.040-2.089-0.493-4.172-1.331-6.077-0.834-1.906-2.046-3.633-3.533-5.060-1.486-1.428-3.248-2.557-5.156-3.302-1.906-0.748-3.956-1.105-5.981-1.061-2.025 0.040-4.042 0.48-5.885 1.292-1.845 0.809-3.517 1.983-4.898 3.424s-2.474 3.147-3.193 4.994c-0.722 1.846-1.067 3.829-1.023 5.79 0.040 1.961 0.468 3.911 1.254 5.694 0.784 1.784 1.921 3.401 3.316 4.736 1.394 1.336 3.046 2.391 4.832 3.085 1.785 0.697 3.701 1.028 5.598 0.985 1.897-0.040 3.78-0.455 5.502-1.216 1.723-0.759 3.285-1.859 4.574-3.208 1.29-1.348 2.308-2.945 2.977-4.67 0.407-1.046 0.684-2.137 0.829-3.244 0.039 0.002 0.078 0.004 0.118 0.004 1.105 0 2-0.895 2-2 0-0.056-0.003-0.112-0.007-0.167h0.007zM28.822 21.311c-0.733 1.663-1.796 3.169-3.099 4.412s-2.844 2.225-4.508 2.868c-1.663 0.646-3.447 0.952-5.215 0.909-1.769-0.041-3.519-0.429-5.119-1.14-1.602-0.708-3.053-1.734-4.25-2.991s-2.141-2.743-2.76-4.346c-0.621-1.603-0.913-3.319-0.871-5.024 0.041-1.705 0.417-3.388 1.102-4.928 0.683-1.541 1.672-2.937 2.883-4.088s2.642-2.058 4.184-2.652c1.542-0.596 3.192-0.875 4.832-0.833 1.641 0.041 3.257 0.404 4.736 1.064 1.48 0.658 2.82 1.609 3.926 2.774s1.975 2.54 2.543 4.021c0.57 1.481 0.837 3.064 0.794 4.641h0.007c-0.005 0.055-0.007 0.11-0.007 0.167 0 1.032 0.781 1.88 1.784 1.988-0.195 1.088-0.517 2.151-0.962 3.156z"></path>
</symbol>
<symbol id="icon-search" viewBox="0 0 24 24">
<path d="M16.041 15.856c-0.034 0.026-0.067 0.055-0.099 0.087s-0.060 0.064-0.087 0.099c-1.258 1.213-2.969 1.958-4.855 1.958-1.933 0-3.682-0.782-4.95-2.050s-2.050-3.017-2.050-4.95 0.782-3.682 2.050-4.95 3.017-2.050 4.95-2.050 3.682 0.782 4.95 2.050 2.050 3.017 2.050 4.95c0 1.886-0.745 3.597-1.959 4.856zM21.707 20.293l-3.675-3.675c1.231-1.54 1.968-3.493 1.968-5.618 0-2.485-1.008-4.736-2.636-6.364s-3.879-2.636-6.364-2.636-4.736 1.008-6.364 2.636-2.636 3.879-2.636 6.364 1.008 4.736 2.636 6.364 3.879 2.636 6.364 2.636c2.125 0 4.078-0.737 5.618-1.968l3.675 3.675c0.391 0.391 1.024 0.391 1.414 0s0.391-1.024 0-1.414z"></path>
</symbol>
</defs>
</svg>
